<svg id="Layer_1" data-name="Layer 1" xmlns="http://www.w3.org/2000/svg" viewBox="0 0 182.9 29.2"><defs><style>.cls-1{fill:#231f20;}</style></defs><title>warehouse-logo-black</title><g id="Home"><g id="header"><g id="logo"><path id="WARE-HOUSE" class="cls-1" d="M18.8,29H15L11.9,10.5h-.1L8.7,29H4.9L.6.5H5L7,18.6h.1L10.3.5h3.1L16.7,19h.1L18.8.5h4.3ZM31.9,8.7h0L29.8,19h4.1ZM30.2.5h3.4L39.9,29H35.8l-1.2-6.1H29L27.9,29H23.8ZM46,13.2h2.3a4,4,0,0,0,1.7-.3,2.19,2.19,0,0,0,1-.9,4.57,4.57,0,0,0,.5-1.4,10.89,10.89,0,0,0,.1-1.9,10.89,10.89,0,0,0-.1-1.9A3.36,3.36,0,0,0,51,5.4a2.44,2.44,0,0,0-1.1-.9,4.84,4.84,0,0,0-1.8-.3H46ZM41.9.5h6.6q7.2,0,7.2,8.4a11,11,0,0,1-.8,4.3,6.25,6.25,0,0,1-2.7,2.9l4.4,13H52.3L48.5,16.9H46V29H41.9ZM59,.5H71.2V4.3H63v8.4h7v3.8H63v8.4h8.1V29H59Zm44.9,0H108V12.7h5V.5h4.1V29H113V16.3h-5V29h-4.1Zm16.8,6.7A6.75,6.75,0,0,1,122.9,2,7.1,7.1,0,0,1,125.1.7a6.9,6.9,0,0,1,2.5-.4,7.66,7.66,0,0,1,2.5.4A6.11,6.11,0,0,1,132.3,2a6,6,0,0,1,1.6,2.2,7.31,7.31,0,0,1,.6,3v15a7.45,7.45,0,0,1-.6,3.1,6,6,0,0,1-1.6,2.2,7.1,7.1,0,0,1-2.2,1.3,6.9,6.9,0,0,1-2.5.4,7.66,7.66,0,0,1-2.5-.4,6.11,6.11,0,0,1-2.2-1.3,6,6,0,0,1-1.6-2.2,7.45,7.45,0,0,1-.6-3.1Zm4.1,15.1a3,3,0,0,0,.8,2.2,2.93,2.93,0,0,0,3.8,0,3,3,0,0,0,.8-2.2V7.3a3,3,0,0,0-.8-2.2,2.93,2.93,0,0,0-3.8,0,3,3,0,0,0-.8,2.2Zm26.4.3a7.51,7.51,0,0,1-.5,2.6,6.43,6.43,0,0,1-3.5,3.5,7,7,0,0,1-5.2,0,6.43,6.43,0,0,1-3.5-3.5,7.51,7.51,0,0,1-.5-2.6V.5h4.1V22.2a2.78,2.78,0,0,0,.7,2.2,2.66,2.66,0,0,0,3.6,0,2.92,2.92,0,0,0,.7-2.2V.5h4.1Zm17-13.9h-4.1V7.8a4,4,0,0,0-.7-2.4,2.46,2.46,0,0,0-2.2-1,2.9,2.9,0,0,0-1.4.3,2,2,0,0,0-.8.8,3.37,3.37,0,0,0-.4,1.2,6.15,6.15,0,0,0-.1,1.4,5.72,5.72,0,0,0,.1,1.4,1.69,1.69,0,0,0,.3,1,2.34,2.34,0,0,0,.7.7,5.35,5.35,0,0,0,1.3.6L164,13a9.05,9.05,0,0,1,2.2,1.2,4.84,4.84,0,0,1,1.3,1.6,6.39,6.39,0,0,1,.6,2.2,21.58,21.58,0,0,1,.2,2.8,11.49,11.49,0,0,1-.4,3.3,5.68,5.68,0,0,1-1.2,2.6,5.43,5.43,0,0,1-2.2,1.7,8.11,8.11,0,0,1-3.3.6,8.68,8.68,0,0,1-2.8-.5,5.55,5.55,0,0,1-2.2-1.4,8,8,0,0,1-1.5-2.1,5.92,5.92,0,0,1-.5-2.7V21h4.1v1.3a3.06,3.06,0,0,0,.7,2,2.66,2.66,0,0,0,2.2.9,3.51,3.51,0,0,0,1.6-.3,2.36,2.36,0,0,0,.9-.8,5,5,0,0,0,.4-1.3,9.72,9.72,0,0,0,.1-1.8,9.18,9.18,0,0,0-.1-1.8,10.38,10.38,0,0,0-.3-1.2,2.34,2.34,0,0,0-.7-.7,6.66,6.66,0,0,0-1.2-.6L159,15.5a6.15,6.15,0,0,1-3.5-2.9,10,10,0,0,1-.9-4.5,9.48,9.48,0,0,1,.4-3,7.45,7.45,0,0,1,1.3-2.5A7.6,7.6,0,0,1,158.5.9a6.16,6.16,0,0,1,3.1-.6,6.71,6.71,0,0,1,2.8.6,8.55,8.55,0,0,1,2.2,1.5A6,6,0,0,1,168,4.5a6.35,6.35,0,0,1,.5,2.3V8.7ZM171.3.5h12.2V4.3h-8.1v8.4h7v3.8h-7v8.4h8.1V29H171.3Z" transform="translate(-0.6)"/><path id="Combined-Shape" class="cls-1" d="M77,8.3,87.5,0,98,8.3V29H77Z" transform="translate(-0.6)"/></g></g></g></svg>